<?xml version="1.0" standalone="no"?>
<!DOCTYPE svg PUBLIC "-//W3C//DTD SVG 20010904//EN"
 "http://www.w3.org/TR/2001/REC-SVG-20010904/DTD/svg10.dtd">
<svg version="1.0" xmlns="http://www.w3.org/2000/svg"
 width="256.000000pt" height="256.000000pt" viewBox="0 0 256.000000 256.000000"
 preserveAspectRatio="xMidYMid meet">
<metadata>
Created by potrace 1.11, written by Peter Selinger 2001-2013
</metadata>
<g transform="translate(0.000000,256.000000) scale(0.100000,-0.100000)"
fill="#000000" stroke="none">
<path d="M1670 2522 c-54 -36 -90 -69 -90 -84 0 -6 -3 -8 -7 -5 -7 8 -103
-121 -103 -139 0 -7 -3 -14 -7 -16 -5 -1 -19 -25 -33 -53 -14 -27 -32 -61 -41
-75 -17 -28 -80 -169 -83 -186 -1 -7 -8 -19 -15 -28 -7 -9 -11 -16 -8 -16 3 0
-3 -23 -14 -51 -10 -29 -16 -56 -13 -60 3 -5 1 -9 -4 -9 -5 0 -12 -12 -15 -27
-3 -16 -13 -62 -22 -103 -23 -102 -24 -109 -31 -160 -3 -25 -8 -54 -10 -64
-16 -83 -21 -323 -9 -436 4 -36 6 -77 6 -93 -1 -15 3 -27 7 -27 5 0 8 -10 7
-23 -1 -12 4 -42 12 -67 8 -25 18 -61 24 -80 21 -69 88 -210 100 -210 5 0 9
-6 9 -14 0 -8 13 -28 29 -45 16 -17 27 -31 24 -31 -2 0 24 -27 59 -60 34 -33
66 -60 71 -60 5 0 15 -7 24 -15 8 -8 19 -13 24 -10 5 4 9 2 9 -2 0 -10 64 -40
95 -45 11 -2 23 -6 26 -10 3 -5 31 -9 62 -10 31 -2 57 -6 57 -9 0 -6 52 -4
128 6 l54 7 80 -81 c44 -45 82 -81 84 -81 3 0 18 -10 34 -21 23 -17 37 -21 72
-16 78 11 113 19 123 28 5 5 16 9 25 9 19 0 103 80 106 102 1 5 3 9 4 11 13
12 3 64 -22 119 -29 64 -30 69 -16 105 8 21 13 48 13 60 -3 27 -41 112 -63
136 -8 9 -12 17 -8 17 4 0 0 7 -8 16 -18 17 -13 58 10 84 7 8 12 17 12 20 0 3
14 49 31 104 17 54 28 103 25 107 -3 5 -1 9 3 9 5 0 9 8 10 18 1 10 8 53 17
94 42 201 42 530 1 693 -9 33 -18 71 -21 85 -32 152 -102 340 -127 340 -5 0
-6 4 -3 9 3 4 -2 18 -12 29 -9 11 -24 30 -32 42 -36 53 -155 160 -178 160 -6
0 -12 5 -14 10 -2 6 -13 12 -26 13 -12 0 -22 4 -22 8 0 5 -60 26 -100 35 -3 0
-12 4 -20 7 -39 18 -179 59 -215 63 -32 4 -49 0 -85 -24z m248 -689 c6 -15 12
-33 12 -40 0 -7 4 -13 8 -13 4 0 9 -10 10 -22 2 -26 10 -63 12 -63 2 0 9 -36
13 -65 2 -14 7 -31 11 -38 4 -7 2 -12 -4 -12 -7 0 -8 -6 -1 -18 5 -10 8 -30 7
-45 -2 -15 0 -27 3 -27 5 0 7 -258 1 -270 -1 -3 -4 -16 -5 -30 -2 -14 -7 -38
-10 -55 -3 -16 -7 -39 -8 -50 -3 -35 -18 -43 -60 -33 -47 10 -107 -14 -107
-43 0 -11 -4 -19 -9 -19 -11 0 -9 -70 2 -87 5 -9 3 -13 -8 -13 -9 0 -13 5 -10
10 3 6 1 10 -5 10 -6 0 -10 6 -9 13 1 6 -1 28 -5 47 -4 19 -8 63 -10 96 -2 34
-6 66 -10 72 -3 6 -2 13 4 17 6 4 7 11 4 17 -6 10 -6 56 -1 215 1 24 5 43 8
43 3 0 5 10 4 23 -1 12 2 28 8 35 5 6 7 12 3 12 -3 0 -1 12 5 28 12 30 14 36
31 107 6 28 15 52 18 55 4 3 10 17 13 32 4 14 17 48 29 75 12 26 21 51 20 56
-5 19 25 4 36 -20z"/>
<path d="M220 2428 c0 -5 -4 -7 -9 -4 -5 3 -22 -1 -37 -9 -16 -8 -35 -15 -42
-15 -7 0 -11 -4 -7 -9 3 -5 -3 -12 -14 -16 -16 -5 -25 -17 -34 -45 -3 -10 -50
-50 -59 -50 -5 0 -7 -4 -3 -9 3 -5 1 -12 -4 -15 -5 -4 -8 -18 -5 -32 3 -14 7
-65 9 -112 2 -48 7 -112 10 -142 10 -96 16 -313 20 -755 8 -698 10 -805 15
-805 3 0 5 -25 4 -56 -1 -31 3 -77 8 -103 5 -25 12 -57 14 -71 3 -13 10 -27
15 -31 6 -3 10 -9 9 -13 -3 -13 6 -22 45 -46 22 -14 42 -25 45 -26 3 0 16 -5
30 -11 14 -6 28 -10 31 -9 3 0 13 -5 22 -12 9 -8 20 -11 25 -9 4 3 14 2 21 -2
16 -10 101 11 132 33 13 9 20 16 15 16 -5 0 -3 7 4 15 8 10 14 53 16 113 2 53
7 113 11 132 4 19 8 40 9 45 1 6 3 13 4 18 5 19 3 75 -3 85 -4 6 -3 13 2 16 9
6 6 61 -5 78 -4 6 -3 9 2 6 5 -4 9 39 9 99 0 57 3 107 7 110 5 2 6 9 2 14 -3
5 -1 16 5 23 6 7 9 20 5 29 -3 8 0 18 5 22 6 3 9 10 6 14 -8 13 40 124 55 129
8 3 12 2 9 -2 -4 -4 -3 -23 1 -42 4 -18 5 -34 1 -34 -3 0 -5 -17 -3 -38 1 -20
3 -41 2 -47 -3 -97 -11 -345 -13 -390 -2 -33 -6 -65 -10 -72 -4 -6 -3 -14 3
-18 6 -4 7 -11 4 -17 -4 -6 -8 -32 -9 -58 -1 -26 -5 -52 -9 -59 -4 -6 -3 -11
2 -11 6 0 8 -8 6 -17 -8 -29 59 -105 121 -138 19 -11 35 -23 35 -28 0 -4 4 -5
10 -2 5 3 18 1 28 -4 11 -6 22 -7 26 -4 4 4 23 8 44 10 20 1 49 7 65 12 15 6
27 6 27 1 0 -4 14 -3 31 3 34 13 58 50 53 81 -1 11 0 25 4 30 7 12 8 15 17
146 12 168 12 205 2 218 -6 8 -6 12 1 12 7 0 9 88 7 268 -4 275 -6 332 -15
332 -3 0 -7 21 -8 48 -2 26 -4 62 -5 79 -1 18 -5 33 -9 33 -3 0 -4 9 -1 20 3
11 1 20 -4 20 -5 0 -10 12 -11 27 -1 15 -7 32 -12 37 -6 6 -10 18 -10 27 0 23
-73 99 -125 130 -22 13 -48 31 -58 40 -10 9 -40 26 -65 36 -57 23 -116 15
-156 -22 -14 -13 -26 -21 -27 -17 0 4 -4 -2 -8 -13 -5 -11 -7 102 -5 250 4
274 7 335 18 353 3 5 -1 15 -9 22 -8 7 -17 27 -21 46 -7 37 -38 68 -99 99 -22
11 -42 23 -45 26 -23 28 -170 60 -170 37z"/>
</g>
</svg>
